<?xml version="1.0" encoding="utf-8"?>
<svg xmlns="http://www.w3.org/2000/svg" viewBox="0 0 400 240" width="4.0in" height="2.4in">
  <!-- 
    ========================================================================
    UNIVERSAL CAP KIT: FUCK CANCER / SAVE THE BOOBS
    - FOR PRE-EMBROIDERED CAPS: Turn OFF/Hide the 'Optional_Ribbon' layer.
      Cut 'Text_Layer_Single_Pass' on White HTV. The hole in the middle drops
      right over any standard 1.25" to 1.5" embroidered ribbon on your existing cap!
    - FOR BLANK CAPS: Cut both layers ('Text_Layer_Single_Pass' and 'Optional_Ribbon').
    ========================================================================
  -->
  
  <!-- LAYER 1: White Vinyl Cut (Single-pass transfer sheet) -->
  <g id="Text_Layer_Single_Pass" fill="#FFFFFF" stroke="none">
    <!-- Arched FUCK CANCER (Clears top of sewn ribbon) -->
    <g id="Top_Arch">
      <path d="M -7.10 -10.21 L 7.10 -10.21 L 7.10 -6.23 L -1.84 -6.23 L -1.84 -2.43 L 6.57 -2.43 L 6.57 1.55 L -1.84 1.55 L -1.84 10.21 L -7.10 10.21 L -7.10 -10.21 Z" transform="translate(109.87, 50.00) rotate(-31.00)" /><path d="M -8.80 -10.01 L -3.53 -10.01 L -3.53 2.23 Q -3.53 4.76 -2.71 5.85 Q -1.88 6.93 -0.01 6.93 Q 1.88 6.93 2.71 5.85 Q 3.53 4.76 3.53 2.23 L 3.53 -10.01 L 8.80 -10.01 L 8.80 2.23 Q 8.80 6.56 6.62 8.69 Q 4.45 10.80 -0.01 10.80 Q -4.45 10.80 -6.63 8.69 Q -8.80 6.56 -8.80 2.23 L -8.80 -10.01 Z" transform="translate(126.60, 41.14) rotate(-24.80)" /><path d="M 8.68 9.47 Q 7.23 10.22 5.66 10.60 Q 4.09 10.99 2.38 10.99 Q -2.72 10.99 -5.70 8.14 Q -8.68 5.28 -8.68 0.40 Q -8.68 -4.49 -5.70 -7.34 Q -2.72 -10.19 2.38 -10.19 Q 4.09 -10.19 5.66 -9.81 Q 7.23 -9.43 8.68 -8.67 L 8.68 -4.45 Q 7.22 -5.45 5.79 -5.91 Q 4.37 -6.38 2.80 -6.38 Q -0.02 -6.38 -1.63 -4.57 Q -3.24 -2.77 -3.24 0.40 Q -3.24 3.56 -1.63 5.37 Q -0.02 7.17 2.80 7.17 Q 4.37 7.17 5.79 6.71 Q 7.22 6.24 8.68 5.24 L 8.68 9.47 Z" transform="translate(144.18, 34.14) rotate(-18.60)" /><path d="M -9.99 -10.21 L -4.72 -10.21 L -4.72 -2.76 L 2.86 -10.21 L 8.98 -10.21 L -0.86 -0.54 L 9.99 10.21 L 3.40 10.21 L -4.72 2.17 L -4.72 10.21 L -9.99 10.21 L -9.99 -10.21 Z" transform="translate(162.42, 29.08) rotate(-12.40)" /><path d="M 8.68 9.47 Q 7.23 10.22 5.66 10.60 Q 4.09 10.99 2.38 10.99 Q -2.72 10.99 -5.70 8.14 Q -8.68 5.28 -8.68 0.40 Q -8.68 -4.49 -5.70 -7.34 Q -2.72 -10.19 2.38 -10.19 Q 4.09 -10.19 5.66 -9.81 Q 7.23 -9.43 8.68 -8.67 L 8.68 -4.45 Q 7.22 -5.45 5.79 -5.91 Q 4.37 -6.38 2.80 -6.38 Q -0.02 -6.38 -1.63 -4.57 Q -3.24 -2.77 -3.24 0.40 Q -3.24 3.56 -1.63 5.37 Q -0.02 7.17 2.80 7.17 Q 4.37 7.17 5.79 6.71 Q 7.22 6.24 8.68 5.24 L 8.68 9.47 Z" transform="translate(200.00, 25.00) rotate(0.00)" /><path d="M 4.12 6.49 L -4.11 6.49 L -5.41 10.21 L -10.70 10.21 L -3.14 -10.21 L 3.14 -10.21 L 10.70 10.21 L 5.41 10.21 L 4.12 6.49 Z M -2.79 2.70 L 2.80 2.70 L 0.01 -5.42 L -2.79 2.70 Z" transform="translate(218.90, 26.02) rotate(6.20)" /><path d="M -9.15 -10.21 L -3.27 -10.21 L 4.15 3.79 L 4.15 -10.21 L 9.15 -10.21 L 9.15 10.21 L 3.27 10.21 L -4.16 -3.79 L -4.16 10.21 L -9.15 10.21 L -9.15 -10.21 Z" transform="translate(237.58, 29.08) rotate(12.40)" /><path d="M 8.68 9.47 Q 7.23 10.22 5.66 10.60 Q 4.09 10.99 2.38 10.99 Q -2.72 10.99 -5.70 8.14 Q -8.68 5.28 -8.68 0.40 Q -8.68 -4.49 -5.70 -7.34 Q -2.72 -10.19 2.38 -10.19 Q 4.09 -10.19 5.66 -9.81 Q 7.23 -9.43 8.68 -8.67 L 8.68 -4.45 Q 7.22 -5.45 5.79 -5.91 Q 4.37 -6.38 2.80 -6.38 Q -0.02 -6.38 -1.63 -4.57 Q -3.24 -2.77 -3.24 0.40 Q -3.24 3.56 -1.63 5.37 Q -0.02 7.17 2.80 7.17 Q 4.37 7.17 5.79 6.71 Q 7.22 6.24 8.68 5.24 L 8.68 9.47 Z" transform="translate(255.82, 34.14) rotate(18.60)" /><path d="M -7.25 -10.21 L 6.95 -10.21 L 6.95 -6.23 L -1.99 -6.23 L -1.99 -2.43 L 6.42 -2.43 L 6.42 1.55 L -1.99 1.55 L -1.99 6.23 L 7.25 6.23 L 7.25 10.21 L -7.25 10.21 L -7.25 -10.21 Z" transform="translate(273.40, 41.14) rotate(24.80)" /><path d="M -1.74 -1.16 Q -0.08 -1.16 0.63 -1.77 Q 1.35 -2.38 1.35 -3.79 Q 1.35 -5.19 0.63 -5.79 Q -0.08 -6.39 -1.74 -6.39 L -3.95 -6.39 L -3.95 -1.16 L -1.74 -1.16 Z M -3.95 2.48 L -3.95 10.21 L -9.21 10.21 L -9.21 -10.21 L -1.18 -10.21 Q 2.86 -10.21 4.73 -8.85 Q 6.62 -7.50 6.62 -4.57 Q 6.62 -2.55 5.63 -1.25 Q 4.66 0.05 2.69 0.66 Q 3.77 0.91 4.62 1.78 Q 5.48 2.65 6.36 4.41 L 9.21 10.21 L 3.61 10.21 L 1.12 5.14 Q 0.37 3.60 -0.41 3.04 Q -1.18 2.48 -2.46 2.48 L -3.95 2.48 Z" transform="translate(290.13, 50.00) rotate(31.00)" />
    </g>
    <!-- Bottom SAVE THE BOOBS (Sits directly beneath ribbon tails) -->
    <g id="Bottom_Text">
      <path d="M 93.41 190.35 L 93.41 194.21 Q 91.91 193.54 90.48 193.20 Q 89.06 192.85 87.79 192.85 Q 86.10 192.85 85.29 193.32 Q 84.49 193.78 84.49 194.75 Q 84.49 195.49 85.03 195.90 Q 85.58 196.30 87.01 196.60 L 89.01 197.00 Q 92.04 197.61 93.33 198.86 Q 94.61 200.10 94.61 202.40 Q 94.61 205.41 92.82 206.88 Q 91.03 208.36 87.36 208.36 Q 85.63 208.36 83.88 208.02 Q 82.13 207.70 80.39 207.05 L 80.39 203.08 Q 82.13 204.01 83.76 204.48 Q 85.39 204.95 86.91 204.95 Q 88.45 204.95 89.26 204.44 Q 90.08 203.92 90.08 202.97 Q 90.08 202.12 89.53 201.65 Q 88.97 201.19 87.31 200.82 L 85.49 200.42 Q 82.76 199.83 81.49 198.55 Q 80.23 197.27 80.23 195.10 Q 80.23 192.38 81.99 190.91 Q 83.74 189.45 87.04 189.45 Q 88.54 189.45 90.13 189.67 Q 91.72 189.90 93.41 190.35 Z M 109.79 204.68 L 102.45 204.68 L 101.29 208.00 L 96.56 208.00 L 103.31 189.77 L 108.92 189.77 L 115.67 208.00 L 110.94 208.00 L 109.79 204.68 Z M 103.62 201.30 L 108.61 201.30 L 106.12 194.05 L 103.62 201.30 Z M 114.21 189.77 L 118.94 189.77 L 123.77 203.23 L 128.60 189.77 L 133.32 189.77 L 126.57 208.00 L 120.96 208.00 L 114.21 189.77 Z M 135.74 189.77 L 148.42 189.77 L 148.42 193.33 L 140.44 193.33 L 140.44 196.72 L 147.94 196.72 L 147.94 200.27 L 140.44 200.27 L 140.44 204.45 L 148.69 204.45 L 148.69 208.00 L 135.74 208.00 L 135.74 189.77 Z M 159.34 189.77 L 176.14 189.77 L 176.14 193.33 L 170.10 193.33 L 170.10 208.00 L 165.40 208.00 L 165.40 193.33 L 159.34 193.33 L 159.34 189.77 Z M 178.57 189.77 L 183.27 189.77 L 183.27 196.72 L 190.21 196.72 L 190.21 189.77 L 194.90 189.77 L 194.90 208.00 L 190.21 208.00 L 190.21 200.27 L 183.27 200.27 L 183.27 208.00 L 178.57 208.00 L 178.57 189.77 Z M 199.49 189.77 L 212.17 189.77 L 212.17 193.33 L 204.19 193.33 L 204.19 196.72 L 211.70 196.72 L 211.70 200.27 L 204.19 200.27 L 204.19 204.45 L 212.44 204.45 L 212.44 208.00 L 199.49 208.00 L 199.49 189.77 Z M 232.57 196.83 Q 233.69 196.83 234.26 196.34 Q 234.83 195.86 234.83 194.90 Q 234.83 193.96 234.26 193.47 Q 233.69 192.97 232.57 192.97 L 229.97 192.97 L 229.97 196.83 L 232.57 196.83 Z M 232.73 204.80 Q 234.15 204.80 234.86 204.20 Q 235.58 203.61 235.58 202.40 Q 235.58 201.21 234.87 200.62 Q 234.16 200.03 232.73 200.03 L 229.97 200.03 L 229.97 204.80 L 232.73 204.80 Z M 237.10 198.25 Q 238.62 198.69 239.44 199.87 Q 240.28 201.05 240.28 202.77 Q 240.28 205.41 238.49 206.71 Q 236.71 208.00 233.07 208.00 L 225.28 208.00 L 225.28 189.77 L 232.33 189.77 Q 236.13 189.77 237.83 190.92 Q 239.53 192.07 239.53 194.60 Q 239.53 195.93 238.91 196.86 Q 238.29 197.79 237.10 198.25 Z M 252.65 192.85 Q 250.51 192.85 249.32 194.44 Q 248.14 196.02 248.14 198.91 Q 248.14 201.77 249.32 203.36 Q 250.51 204.95 252.65 204.95 Q 254.81 204.95 256.00 203.36 Q 257.18 201.77 257.18 198.91 Q 257.18 196.02 256.00 194.44 Q 254.81 192.85 252.65 192.85 Z M 252.65 189.45 Q 257.05 189.45 259.54 191.96 Q 262.03 194.47 262.03 198.91 Q 262.03 203.32 259.54 205.84 Q 257.05 208.36 252.65 208.36 Q 248.27 208.36 245.78 205.84 Q 243.28 203.32 243.28 198.91 Q 243.28 194.47 245.78 191.96 Q 248.27 189.45 252.65 189.45 Z M 273.91 192.85 Q 271.76 192.85 270.58 194.44 Q 269.39 196.02 269.39 198.91 Q 269.39 201.77 270.58 203.36 Q 271.76 204.95 273.91 204.95 Q 276.07 204.95 277.25 203.36 Q 278.44 201.77 278.44 198.91 Q 278.44 196.02 277.25 194.44 Q 276.07 192.85 273.91 192.85 Z M 273.91 189.45 Q 278.30 189.45 280.79 191.96 Q 283.28 194.47 283.28 198.91 Q 283.28 203.32 280.79 205.84 Q 278.30 208.36 273.91 208.36 Q 269.53 208.36 267.03 205.84 Q 264.53 203.32 264.53 198.91 Q 264.53 194.47 267.03 191.96 Q 269.53 189.45 273.91 189.45 Z M 294.13 196.83 Q 295.25 196.83 295.82 196.34 Q 296.39 195.86 296.39 194.90 Q 296.39 193.96 295.82 193.47 Q 295.25 192.97 294.13 192.97 L 291.54 192.97 L 291.54 196.83 L 294.13 196.83 Z M 294.29 204.80 Q 295.71 204.80 296.42 204.20 Q 297.14 203.61 297.14 202.40 Q 297.14 201.21 296.43 200.62 Q 295.72 200.03 294.29 200.03 L 291.54 200.03 L 291.54 204.80 L 294.29 204.80 Z M 298.67 198.25 Q 300.18 198.69 301.01 199.87 Q 301.84 201.05 301.84 202.77 Q 301.84 205.41 300.06 206.71 Q 298.28 208.00 294.63 208.00 L 286.84 208.00 L 286.84 189.77 L 293.89 189.77 Q 297.69 189.77 299.39 190.92 Q 301.10 192.07 301.10 194.60 Q 301.10 195.93 300.47 196.86 Q 299.85 197.79 298.67 198.25 Z M 318.57 190.35 L 318.57 194.21 Q 317.07 193.54 315.64 193.20 Q 314.22 192.85 312.95 192.85 Q 311.26 192.85 310.46 193.32 Q 309.65 193.78 309.65 194.75 Q 309.65 195.49 310.19 195.90 Q 310.74 196.30 312.17 196.60 L 314.17 197.00 Q 317.21 197.61 318.49 198.86 Q 319.77 200.10 319.77 202.40 Q 319.77 205.41 317.98 206.88 Q 316.19 208.36 312.52 208.36 Q 310.79 208.36 309.04 208.02 Q 307.29 207.70 305.55 207.05 L 305.55 203.08 Q 307.29 204.01 308.92 204.48 Q 310.55 204.95 312.07 204.95 Q 313.61 204.95 314.42 204.44 Q 315.24 203.92 315.24 202.97 Q 315.24 202.12 314.69 201.65 Q 314.13 201.19 312.47 200.82 L 310.65 200.42 Q 307.92 199.83 306.65 198.55 Q 305.39 197.27 305.39 195.10 Q 305.39 192.38 307.15 190.91 Q 308.90 189.45 312.20 189.45 Q 313.71 189.45 315.29 189.67 Q 316.88 189.90 318.57 190.35 Z" />
    </g>
  </g>
  
  <!-- LAYER 2: Optional Vinyl Ribbon (For 100% blank caps) -->
  <g id="Optional_Ribbon_Hide_If_Cap_Already_Has_Embroidery" fill="#FF69B4" stroke="none">
    <path d="M 200 67.5 C 179.0 67.5 170.0 91.25 170.0 105.5 C 170.0 119.75 179.0 132.1 191.0 141.6 L 173.0 162.5 L 188.0 162.5 L 200 143.5 L 212.0 162.5 L 227.0 162.5 L 215.2 141.6 C 221.0 132.1 230.0 119.75 230.0 105.5 C 230.0 91.25 221.0 67.5 200 67.5 Z M 200 81.75 C 212.0 81.75 216.8 94.1 216.8 105.5 C 216.8 113.1 210.8 122.6 200 132.1 C 189.2 122.6 183.2 113.1 183.2 105.5 C 183.2 94.1 188.0 81.75 200 81.75 Z" />
  </g>
</svg>
